<?xml version="1.0" encoding="UTF-8"?>
<svg id="Layer_2" data-name="Layer 2" xmlns="http://www.w3.org/2000/svg" viewBox="0 0 727.33 292.73">
  <defs>
    <style>
      .cls-1 {
        fill: #f15a24;
      }
    </style>
  </defs>
  <g id="Layer_1-2" data-name="Layer 1">
    <g>
      <path class="cls-1" d="M347.44,64.33c1.16-1.17,2.13-2.65,3.09-3.99,9.33-12.92,18.11-26.36,27.66-39.11,5.34-7.13,11.27-13.14,20.58-14.42,17.92-2.46,33.38,12.22,29.81,30.37-1.48,7.51-6.02,13.61-10.36,19.68-15.1,21.11-31.36,41.43-46.5,62.51-.95,15.15-1.98,30.32-2.75,45.46-1.28,25.16.36,7.27-1.01,32.43-.43,7.83-.51,16.19-1.88,23.91-3.37,19.02-29.84,21.38-42.46,9.68-11.3-10.47-8.65-25.11-8.42-38.9.67-39.66-.42-36.18.47-75.8-12.13-22.86-26.26-45.05-38.11-68.02-5.8-11.25-11.47-23-4.29-35.21,7.23-12.3,23.78-16.32,36.34-9.84,8.38,4.32,14.19,16.92,18.62,25.01,6.56,11.99,12.77,24.19,19.21,36.25Z"/>
      <path class="cls-1" d="M142.12,26.45c2.07.47,4.15.74,6.18,1.38,19.05,5.95,22.87,32.48,6.37,43.68-4.15,2.82-9.2,4.33-14.15,5.05-8.78,1.28-18.01,1.62-26.85,2.67-1.04.18-.44,3.21-.36,4.2,3.42,38.17,8.83,76.2,11.51,114.43-1.79,33.78-48.07,37.89-55.36,3.77-.47-2.2-.71-4.42-1.03-6.64l-11.28-109.75-27.71,2.89c-13.36,1.18-25.76-5.38-28.76-19.01-.24-1.1-.32-2.25-.64-3.31.12-1.86-.17-3.92,0-5.76,1.47-15.94,15.55-20.92,29.16-22.55,34.96-4.17,70.14-6.82,105.13-10.79l.58-.25h7.2Z"/>
      <path class="cls-1" d="M199.24,200.61l3.12,38.74c2.57,17.15-3.47,34.71-22.27,37.95-17.44,3-30.57-7.79-33.09-24.82-3.78-46.72-7.59-93.5-10.63-140.27,1-18.83,12.85-26.45,30.36-28.19,18.5-1.84,38.05-3.19,56.64-4.32,14-.85,27.03-1.21,40.26,4.13,24.97,10.09,37.41,35.9,33.74,62.16-2.35,16.86-12.37,29.79-26.84,38.18,12.35,11.38,23.36,25.28,31.47,40.02,6.82,12.38,11.65,24.32.8,36.39-12.64,14.07-33.22,10.89-44.99-2.53-12.57-14.32-22.01-32.9-34.68-47.38-4.02-4.59-8.57-9.16-14.91-10.04-2.99-.42-5.98-.21-8.97-.03ZM195.64,154.07c.91-.03,1.84.04,2.76,0,7.33-.39,15.75-.99,23.01-1.95,5.97-.79,19.09-2.68,19.83-10.16,1.48-14.9-10.41-14.45-21.49-14.04l-25.79,1.93,1.68,24.23Z"/>
      <path class="cls-1" d="M493.4,292.61c-3.47.19-7.79.15-11.28,0-7.1-.31-14.57-1.45-21.68-2.44-16.5-2.3-33.8-4.72-50.16-7.68-20.56-3.72-29.27-14.61-26.76-35.79,7.29-41.64,11.75-83.86,19.2-125.46,2.98-16.64,10.46-27.92,28.88-28.18,22.32,3.07,44.94,5.73,67.12,9.86,17.76,3.31,33,8.56,44.07,23.6,16.34,22.2,12.71,54.8-9.8,71.21,1.83,2.24,3.97,4.2,5.75,6.48,17.44,22.21,11.56,55.75-8.75,74.01-10.13,9.1-23.11,13.66-36.6,14.39ZM452.85,165.93c8.36,1.06,16.94,3.11,25.31,3.85,3.58.31,10.16.79,13.33-.83,4.06-2.08,6.34-8.67,5.21-12.91-.64-2.41-4.42-3.82-6.6-4.67-10.59-4.17-22.66-4.56-33.76-6.75l-3.49,21.31ZM441.81,239.11c12.31,1.27,24.42,4.55,36.85,4.57,8.9-.5,13.91-3.92,14.27-13.33.39-10.15-12.47-12.71-20.35-14.2-8.79-1.66-17.75-2.49-26.54-4.12l-4.22,27.08Z"/>
      <path class="cls-1" d="M630.56,84.01l-3.52,19.17,61.87,12.36c29.67,7.92,22.08,50.45-9.32,46.75l-62.14-12.31-4.95,25.5,69.39,13.88c32.16,8.27,24.01,51.42-7.57,48.49l-99.76-19.78c-15.21-4.58-22.83-14.94-21.51-30.79,8.02-44.01,17.39-87.81,25.87-131.75,3.64-14.7,11.75-24.45,27.58-24.69,4.84-.07,9.4.94,14.13,1.82,29.73,5.51,59.31,12.04,88.97,17.91,32.01,10.95,16.91,55.52-15.39,46.18l-63.65-12.74Z"/>
    </g>
  </g>
</svg>